<?xml version="1.0" standalone="no"?>
<!DOCTYPE svg PUBLIC "-//W3C//DTD SVG 20010904//EN"
 "http://www.w3.org/TR/2001/REC-SVG-20010904/DTD/svg10.dtd">
<svg version="1.0" xmlns="http://www.w3.org/2000/svg"
 width="251.000000pt" height="251.000000pt" viewBox="0 0 251.000000 251.000000"
 preserveAspectRatio="xMidYMid meet">
<metadata>
Created by potrace 1.14, written by Peter Selinger 2001-2017
</metadata>
<g transform="translate(0.000000,251.000000) scale(0.100000,-0.100000)"
fill="#000000" stroke="none">
<path d="M511 2479 c-27 -36 -42 -84 -34 -105 8 -21 21 -17 49 13 34 37 40 22
13 -33 -26 -56 -27 -84 -5 -179 9 -38 21 -104 26 -145 6 -41 22 -113 37 -160
30 -96 92 -240 105 -240 15 0 8 -27 -12 -45 -22 -20 -26 -71 -10 -140 5 -22
13 -60 18 -84 6 -24 14 -46 19 -50 19 -12 42 -70 29 -75 -6 -2 15 -5 47 -5 69
-1 156 35 200 83 23 26 29 29 37 16 15 -24 12 -30 -22 -45 l-33 -14 34 -1 c19
0 43 -8 53 -17 17 -15 21 -15 29 -3 15 22 2 110 -19 134 -10 12 -26 33 -35 48
-11 18 -50 43 -114 74 -54 25 -111 56 -128 69 -16 12 -40 25 -52 29 -16 5 -23
15 -23 31 0 32 16 40 30 15 9 -17 14 -18 30 -8 18 11 31 37 34 65 1 7 7 18 14
25 6 6 12 17 12 23 0 13 31 30 70 40 19 5 22 4 10 -4 -13 -10 -13 -11 0 -11
22 0 107 -47 166 -91 40 -29 55 -49 68 -85 24 -70 66 -110 66 -63 0 13 8 23
20 26 11 3 23 16 26 28 7 27 -29 115 -47 115 -7 0 -10 2 -7 5 3 3 19 -2 36
-12 28 -16 33 -16 64 -2 57 28 94 32 126 15 52 -27 114 -44 187 -51 39 -3 80
-9 92 -12 17 -4 25 1 35 22 10 22 17 26 38 21 35 -7 88 26 96 60 4 14 4 49 2
77 -7 65 -2 77 27 77 30 0 35 -17 37 -110 l1 -74 53 -54 c103 -105 173 -286
181 -467 7 -158 -19 -312 -67 -395 -8 -14 -13 -31 -12 -38 2 -6 -4 -12 -13
-12 -9 0 -14 -4 -10 -9 3 -5 -4 -13 -15 -16 -12 -4 -25 -18 -30 -31 -5 -13
-16 -24 -25 -24 -8 0 -15 -7 -15 -15 0 -8 -6 -12 -14 -9 -15 6 -80 -69 -69
-80 4 -4 -2 -9 -14 -12 -13 -4 -20 -11 -16 -20 3 -8 1 -14 -5 -14 -6 0 -34
-23 -64 -51 -29 -28 -72 -62 -95 -76 -24 -14 -43 -29 -43 -34 0 -5 -13 -9 -29
-9 -20 0 -30 -6 -34 -20 -3 -11 -9 -20 -14 -19 -4 1 -11 0 -15 -1 -5 -1 -11
-4 -15 -5 -33 -10 -73 -28 -73 -33 0 -4 -12 -8 -27 -8 -16 -1 -65 -6 -110 -11
-45 -5 -92 -5 -103 -1 -11 4 -35 9 -53 11 -18 2 -42 9 -54 15 -12 7 -31 12
-42 12 -12 0 -21 5 -21 10 0 6 -11 10 -23 10 -26 0 -107 74 -107 97 0 7 -9 22
-21 34 -21 21 -79 135 -79 155 0 6 -7 17 -15 24 -8 7 -15 26 -15 42 0 17 -6
44 -14 61 -8 18 -17 44 -20 59 -3 15 -17 40 -30 55 l-25 28 0 -45 c0 -47 30
-174 53 -225 7 -16 27 -57 44 -90 84 -162 95 -189 84 -193 -7 -2 -12 -10 -12
-18 0 -9 -7 -14 -17 -12 -10 1 -30 -6 -45 -16 -16 -10 -35 -16 -43 -12 -9 3
-13 2 -10 -4 3 -6 -3 -10 -14 -10 -12 0 -21 -4 -21 -9 0 -6 -68 -10 -160 -9
-88 0 -174 -5 -192 -11 -68 -22 -231 -42 -355 -44 l-53 0 0 -89 0 -88 710 0
c599 0 710 2 710 14 0 8 15 17 36 21 20 3 44 10 53 15 9 5 45 19 81 31 36 13
67 25 70 28 3 3 21 15 40 25 19 11 40 27 47 35 7 9 13 12 13 7 0 -6 15 4 33
20 17 17 48 41 67 54 98 66 265 264 299 354 6 13 14 27 19 30 12 7 42 -15 46
-34 14 -62 19 -79 26 -75 4 2 10 70 14 151 5 116 4 149 -6 155 -10 7 -10 12
-1 26 7 10 21 35 33 56 l21 39 -26 20 c-28 22 -32 55 -10 84 8 10 15 26 15 34
0 8 12 25 28 39 24 22 25 23 5 19 -13 -4 -24 0 -27 8 -3 7 -12 11 -21 8 -12
-5 -15 4 -15 54 0 44 4 61 15 66 8 3 15 11 15 18 1 24 47 71 64 65 27 -11 18
13 -10 25 -28 13 -29 38 -4 108 7 19 18 48 23 64 13 37 62 66 110 66 l37 0 0
440 0 440 -988 0 -988 0 -23 -31z m319 -1112 c0 -7 9 -29 20 -50 16 -29 17
-37 6 -37 -56 0 -97 50 -68 83 18 20 42 23 42 4z m120 -2 c10 -13 9 -15 -8
-15 -22 0 -36 13 -25 24 10 10 20 7 33 -9z"/>
<path d="M1620 1549 c-25 -10 -133 -32 -225 -44 -73 -10 -115 -30 -115 -54 0
-27 31 -34 103 -23 31 5 57 7 57 4 0 -11 -37 -31 -57 -32 -15 0 -23 -6 -22
-17 0 -11 3 -13 6 -5 9 22 20 13 15 -13 -2 -14 -9 -25 -14 -25 -7 0 -6 -5 1
-13 6 -8 8 -17 4 -20 -3 -4 0 -7 8 -7 8 0 30 16 49 35 38 39 57 44 67 18 4
-10 16 -30 29 -45 12 -15 24 -32 26 -38 4 -13 84 13 109 36 10 9 21 29 24 45
7 32 12 34 49 19 30 -11 33 -26 9 -53 -17 -19 -17 -19 2 -9 43 25 78 60 72 74
-10 28 -96 43 -234 42 -73 0 -133 1 -133 3 0 5 69 33 150 61 59 20 95 26 167
26 51 1 93 4 93 7 0 26 -192 49 -240 28z m4 -165 c10 -4 16 -17 15 -38 -1 -17
-3 -23 -6 -13 -2 9 -13 17 -24 17 -18 0 -26 20 -12 33 8 8 8 8 27 1z"/>
<path d="M2495 1460 c3 -5 8 -10 11 -10 2 0 4 5 4 10 0 6 -5 10 -11 10 -5 0
-7 -4 -4 -10z"/>
<path d="M1031 1024 c0 -11 3 -14 6 -6 3 7 2 16 -1 19 -3 4 -6 -2 -5 -13z"/>
<path d="M1004 895 c-5 -21 -1 -32 20 -51 14 -14 26 -27 26 -30 0 -11 -29 -34
-44 -34 -8 0 -31 -8 -51 -17 -58 -28 -51 -44 64 -143 29 -24 41 -43 41 -61 0
-62 80 -106 169 -94 26 3 53 10 60 15 16 10 10 32 -10 35 -7 1 -38 5 -67 9
-56 7 -92 21 -92 35 0 5 -9 11 -21 14 -12 3 -18 10 -15 15 3 6 0 12 -6 15 -33
11 11 17 168 22 148 5 219 13 288 32 16 5 17 7 3 20 -13 14 -20 14 -61 -2 -36
-14 -61 -16 -109 -11 -34 4 -91 9 -127 12 -36 2 -91 10 -122 16 -31 6 -64 8
-73 5 -31 -13 -14 23 18 37 21 8 38 25 47 45 8 20 22 33 39 37 14 3 33 8 41
12 8 3 48 8 89 11 94 7 103 25 19 37 -46 7 -80 6 -126 -4 -56 -12 -66 -12 -87
2 -82 53 -73 51 -81 21z"/>
<path d="M2245 388 c-4 -29 -9 -66 -11 -83 -2 -16 -6 -36 -9 -43 -6 -18 5 -63
14 -57 4 2 14 -18 21 -45 8 -28 19 -50 27 -50 7 0 13 4 13 9 0 5 7 11 14 14
10 4 13 1 9 -9 -3 -7 -1 -14 4 -14 4 0 14 -10 22 -21 11 -19 11 -21 -3 -16 -9
4 -16 2 -16 -3 0 -5 10 -12 21 -15 17 -6 19 -9 8 -16 -10 -6 -10 -9 -2 -9 7 0
10 -7 7 -15 -5 -13 6 -15 70 -15 l76 0 0 80 c0 57 -4 80 -12 81 -7 1 -22 3
-33 5 -11 2 -42 8 -68 12 -69 13 -85 34 -117 157 l-27 106 -8 -53z"/>
</g>
</svg>
